<svg xmlns="http://www.w3.org/2000/svg" viewBox="0 0 512 512" width="512" height="512">
  <!-- Background -->
  <rect width="512" height="512" rx="108" fill="#6366F1"/>

  <!-- Back window -->
  <rect x="136" y="80" width="264" height="200" rx="16" fill="#818CF8"/>

  <!-- Main window -->
  <rect x="88" y="128" width="264" height="224" rx="16" fill="white"/>

  <!-- Title bar -->
  <rect x="88" y="128" width="264" height="48" rx="16" fill="#E0E7FF"/>
  <rect x="88" y="160" width="264" height="16" fill="#E0E7FF"/>

  <!-- Traffic lights -->
  <circle cx="118" cy="152" r="10" fill="#F87171"/>
  <circle cx="146" cy="152" r="10" fill="#FBBF24"/>
  <circle cx="174" cy="152" r="10" fill="#4ADE80"/>

  <!-- Tabs -->
  <rect x="200" y="136" width="48" height="24" rx="6" fill="white"/>
  <rect x="256" y="136" width="48" height="24" rx="6" fill="#C7D2FE"/>
  <rect x="312" y="136" width="28" height="24" rx="6" fill="#C7D2FE"/>

  <!-- Content lines -->
  <rect x="112" y="198" width="160" height="12" rx="6" fill="#C7D2FE"/>
  <rect x="112" y="222" width="216" height="12" rx="6" fill="#E0E7FF"/>
  <rect x="112" y="246" width="130" height="12" rx="6" fill="#E0E7FF"/>
  <rect x="112" y="270" width="180" height="12" rx="6" fill="#EEF2FF"/>

  <!-- Save badge -->
  <circle cx="362" cy="374" r="72" fill="#10B981"/>

  <!-- Bookmark icon -->
  <path d="M336 338 L336 410 L362 392 L388 410 L388 338 Z" fill="white"/>
</svg>
